<svg width="20" height="22" viewBox="0 0 20 22" fill="none" xmlns="http://www.w3.org/2000/svg">
<path d="M18.643 16.7602C18.3165 17.5059 17.9301 18.1924 17.4824 18.8235C16.8721 19.6839 16.3724 20.2794 15.9873 20.6101C15.3904 21.153 14.7508 21.431 14.0659 21.4468C13.5742 21.4468 12.9812 21.3085 12.291 21.0278C11.5985 20.7485 10.9621 20.6101 10.3802 20.6101C9.76989 20.6101 9.11536 20.7485 8.41527 21.0278C7.71411 21.3085 7.14926 21.4547 6.7174 21.4692C6.06061 21.4969 5.40596 21.211 4.7525 20.6101C4.33543 20.2504 3.81376 19.6338 3.18881 18.7602C2.5183 17.8274 1.96705 16.7457 1.53518 15.5124C1.07267 14.1803 0.84082 12.8904 0.84082 11.6416C0.84082 10.2111 1.15342 8.9773 1.77956 7.94339C2.27166 7.11292 2.92631 6.45781 3.74566 5.97689C4.56502 5.49597 5.45033 5.2509 6.40373 5.23522C6.9254 5.23522 7.60951 5.39478 8.45964 5.70837C9.30738 6.02301 9.8517 6.18257 10.0904 6.18257C10.2688 6.18257 10.8735 5.996 11.8986 5.62404C12.8679 5.2791 13.6861 5.13627 14.3563 5.19253C16.1725 5.33747 17.537 6.04541 18.4444 7.32083C16.8201 8.294 16.0166 9.65704 16.0326 11.4056C16.0473 12.7676 16.547 13.901 17.529 14.8009C17.9741 15.2186 18.4711 15.5414 19.0241 15.7706C18.9042 16.1145 18.7776 16.4439 18.643 16.7602ZM14.4776 0.552521C14.4776 1.62004 14.0832 2.61678 13.297 3.53936C12.3483 4.63612 11.2007 5.26988 9.9563 5.16987C9.94045 5.0418 9.93125 4.90701 9.93125 4.76537C9.93125 3.74055 10.3824 2.64379 11.1837 1.74704C11.5837 1.293 12.0924 0.915476 12.7094 0.614315C13.325 0.317647 13.9073 0.153583 14.4549 0.125488C14.4709 0.268199 14.4776 0.410919 14.4776 0.552507V0.552521Z" fill="#323142"/>
</svg>
