<svg width="16" height="17" viewBox="0 0 16 17" fill="none" xmlns="http://www.w3.org/2000/svg">
<path d="M11.8885 5.37115C11.5343 4.72182 11.0473 4.22745 10.4275 3.88803C9.80772 3.54861 9.0846 3.3789 8.25819 3.3789C7.34323 3.3789 6.53157 3.5855 5.82321 3.99871C5.11486 4.41192 4.56145 5.00222 4.163 5.7696C3.76455 6.53699 3.56533 7.42243 3.56533 8.42594C3.56533 9.45896 3.76455 10.3592 4.163 11.1265C4.57621 11.8939 5.14437 12.4842 5.86749 12.8974C6.5906 13.3106 7.43177 13.5172 8.391 13.5172C9.5716 13.5172 10.5382 13.2073 11.2908 12.5875C12.0435 11.953 12.5378 11.0749 12.774 9.95333H7.46129V7.58476H15.8287V10.2854C15.6221 11.3627 15.1794 12.3588 14.5006 13.2738C13.8217 14.1887 12.9437 14.9266 11.8664 15.4874C10.8038 16.0334 9.60849 16.3064 8.28032 16.3064C6.78982 16.3064 5.43952 15.9744 4.22941 15.3103C3.03406 14.6314 2.08959 13.6943 1.39599 12.499C0.717145 11.3036 0.377724 9.94595 0.377724 8.42594C0.377724 6.90592 0.717145 5.54824 1.39599 4.35289C2.08959 3.14278 3.03406 2.20568 4.22941 1.5416C5.43952 0.862758 6.78245 0.523337 8.25819 0.523337C9.99956 0.523337 11.5122 0.951302 12.7961 1.80723C14.08 2.64841 14.9654 3.83638 15.4524 5.37115H11.8885Z" fill="#323142"/>
</svg>
