<svg width="80" height="31" viewBox="0 0 80 31" fill="none" xmlns="http://www.w3.org/2000/svg">
<rect x="2.87866" y="4.07324" width="30.0568" height="26.5505" rx="4.9561" fill="#6C5FBC"/>
<rect x="0.982067" y="1.24989" width="28.6239" height="25.1176" rx="4.23965" fill="#DBD9EE" stroke="#6C5FBC" stroke-width="1.43288"/>
<path d="M23.4653 9.10559L7.17975 9.03358" stroke="#6C5FBC" stroke-width="1.48218" stroke-linecap="round" stroke-linejoin="round"/>
<path d="M23.4551 12.3665L19.8327 12.3505C18.3344 12.3439 17.1226 10.8773 17.1281 9.0773C17.1336 7.27728 18.3543 5.82147 19.8527 5.8281L23.4751 5.84412" stroke="#6C5FBC" stroke-width="1.48218" stroke-linecap="round" stroke-linejoin="round"/>
<path d="M12.6063 19.5372L7.87365 19.4845C7.48587 19.4828 7.16095 19.1002 7.15356 18.6343L7.12207 17.4059C7.11475 16.9189 7.44211 16.5074 7.84752 16.5092L12.5272 16.5616L12.6063 19.5372Z" stroke="#6C5FBC" stroke-width="1.48218" stroke-linecap="round" stroke-linejoin="round"/>
<path d="M20.0402 21.3079L13.3508 21.2254C12.963 21.2237 12.6381 20.8411 12.6307 20.3752L12.5454 16.5524L23.4124 16.6851L23.4198 17.1722C23.4744 19.4807 21.9527 21.3376 20.0402 21.3079Z" stroke="#6C5FBC" stroke-width="1.48218" stroke-linecap="round" stroke-linejoin="round"/>
<path d="M49.5521 15.9949C49.5521 16.2961 49.5321 16.5672 49.4919 16.8081H43.3933C43.4435 17.4104 43.6543 17.8823 44.0257 18.2236C44.3972 18.5649 44.8539 18.7356 45.396 18.7356C46.1791 18.7356 46.7362 18.3993 47.0675 17.7267H49.3413C49.1004 18.5298 48.6386 19.1923 47.9559 19.7144C47.2733 20.2263 46.4351 20.4823 45.4412 20.4823C44.6381 20.4823 43.9153 20.3066 43.2728 19.9553C42.6403 19.5939 42.1434 19.0869 41.782 18.4344C41.4307 17.7819 41.255 17.0289 41.255 16.1756C41.255 15.3123 41.4307 14.5544 41.782 13.9018C42.1334 13.2493 42.6253 12.7474 43.2577 12.396C43.8902 12.0446 44.618 11.869 45.4412 11.869C46.2343 11.869 46.942 12.0396 47.5644 12.3809C48.1969 12.7223 48.6838 13.2091 49.0251 13.8416C49.3764 14.464 49.5521 15.1818 49.5521 15.9949ZM47.3687 15.3926C47.3586 14.8505 47.1629 14.4188 46.7814 14.0976C46.3999 13.7663 45.9331 13.6007 45.381 13.6007C44.8589 13.6007 44.4172 13.7613 44.0558 14.0825C43.7045 14.3937 43.4886 14.8304 43.4083 15.3926H47.3687ZM50.5488 16.1455C50.5488 15.3023 50.7144 14.5544 51.0457 13.9018C51.387 13.2493 51.8438 12.7474 52.416 12.396C52.9983 12.0446 53.6458 11.869 54.3586 11.869C54.981 11.869 55.5231 11.9944 55.9849 12.2454C56.4567 12.4964 56.8331 12.8126 57.1142 13.1941V12.0045H59.2375V20.3468H57.1142V19.1271C56.8432 19.5186 56.4667 19.8449 55.9849 20.1059C55.513 20.3568 54.9659 20.4823 54.3435 20.4823C53.6408 20.4823 52.9983 20.3016 52.416 19.9402C51.8438 19.5788 51.387 19.0719 51.0457 18.4193C50.7144 17.7568 50.5488 16.9988 50.5488 16.1455ZM57.1142 16.1756C57.1142 15.6637 57.0138 15.227 56.8131 14.8656C56.6123 14.4941 56.3412 14.213 55.9999 14.0223C55.6586 13.8215 55.2922 13.7211 54.9007 13.7211C54.5091 13.7211 54.1477 13.8165 53.8165 14.0072C53.4852 14.198 53.2141 14.4791 53.0033 14.8505C52.8025 15.2119 52.7021 15.6436 52.7021 16.1455C52.7021 16.6475 52.8025 17.0892 53.0033 17.4707C53.2141 17.8421 53.4852 18.1282 53.8165 18.329C54.1578 18.5298 54.5192 18.6302 54.9007 18.6302C55.2922 18.6302 55.6586 18.5348 55.9999 18.344C56.3412 18.1433 56.6123 17.8622 56.8131 17.5008C57.0138 17.1293 57.1142 16.6876 57.1142 16.1756ZM63.751 13.7362V17.7718C63.751 18.0529 63.8162 18.2587 63.9467 18.3892C64.0873 18.5097 64.3182 18.5699 64.6394 18.5699H65.6182V20.3468H64.2931C62.5162 20.3468 61.6277 19.4835 61.6277 17.7568V13.7362H60.6339V12.0045H61.6277V9.94149H63.751V12.0045H65.6182V13.7362H63.751ZM69.2427 9.20363V20.3468H67.1345V9.20363H69.2427ZM79.3065 12.0045L74.1415 24.2921H71.8978L73.7048 20.136L70.3618 12.0045H72.726L74.8793 17.8321L77.0628 12.0045H79.3065Z" fill="#6C5FBC"/>
</svg>
